<svg t="1718346432888" class="icon" viewBox="0 0 1024 1024" version="1.1" xmlns="http://www.w3.org/2000/svg" p-id="987" width="200" height="200"><path d="M0 0h1024v1024H0z" fill-opacity="0" p-id="988"></path><path d="M741.546667 94.890667H290.133333a136.533333 136.533333 0 0 0-136.533333 136.533333v589.824c1.706667 14.165333 26.624 25.429333 57.856 25.429333 27.136 0 48.981333-8.704 55.637333-20.138666L506.538667 614.4a18.773333 18.773333 0 0 1 27.136 0l229.546666 211.626667a28.672 28.672 0 0 0 14.336 13.141333 98.986667 98.986667 0 0 0 41.813334 8.192c31.061333 0 56.149333-11.264 57.856-25.429333V231.253333a136.533333 136.533333 0 0 0-135.68-136.362666zM515.754667 494.933333a130.901333 130.901333 0 1 1 130.901333-130.901333A130.730667 130.730667 0 0 1 515.754667 494.933333z" fill="#EDD600" p-id="989"></path><path d="M213.674667 295.936v-10.581333a18.090667 18.090667 0 0 1 36.010666 0v10.581333a18.090667 18.090667 0 0 1-36.010666 0z m0-69.632v-12.117333a47.616 47.616 0 0 1 47.616-47.786667h93.184a18.090667 18.090667 0 0 1 0 36.010667h-93.184a11.605333 11.605333 0 0 0-11.605334 11.776v12.117333a18.090667 18.090667 0 1 1-36.010666 0z" fill="#FFFFFF" p-id="990"></path></svg>